<svg width="34" height="35" viewBox="0 0 34 35" fill="none" xmlns="http://www.w3.org/2000/svg">
<path d="M34 0.279419L34 19.2794C34 27.5637 27.2843 34.2794 19 34.2794L-1.48104e-06 34.2794L-6.53402e-07 15.2794C-2.92538e-07 6.99515 6.71573 0.279418 15 0.279418L34 0.279419Z" fill="#202020"/>
<path fill-rule="evenodd" clip-rule="evenodd" d="M18.0856 26.5734C18.0856 26.5734 23.7582 16.6618 23.7582 13.4374C23.7582 10.2131 21.2185 7.59924 18.0856 7.59924C14.9528 7.59924 12.4131 10.2131 12.4131 13.4374C12.4131 16.6618 18.0856 26.5734 18.0856 26.5734ZM18.0852 16.3566C19.6516 16.3566 20.9214 15.0496 20.9214 13.4375C20.9214 11.8253 19.6516 10.5184 18.0852 10.5184C16.5187 10.5184 15.2489 11.8253 15.2489 13.4375C15.2489 15.0496 16.5187 16.3566 18.0852 16.3566Z" fill="white"/>
</svg>
